<svg width="427" height="288" viewBox="0 0 427 288" fill="none" xmlns="http://www.w3.org/2000/svg">
<g filter="url(#filter0_d_9_23)">
<rect x="4" width="419" height="280" rx="8" fill="#ADBFFF"/>
</g>
<rect x="4" y="46" width="419" height="193" fill="#933E35" fill-opacity="0.31"/>
<path d="M68.65 85.23L67.9 85.44L63.94 79.59H60.1V99.84L63.22 100.95L62.68 102H53.86V101.22L56.68 99V79.59H52.96L49 85.44L48.25 85.23V77.88L49.75 78.42H67.15L68.65 77.88V85.23ZM78.6325 85.8C79.9325 85.8 81.0925 86.15 82.1125 86.85C83.1325 87.53 83.9325 88.46 84.5125 89.64C85.0925 90.82 85.3825 92.12 85.3825 93.54C85.3825 95.08 84.9225 96.53 84.0025 97.89C83.0825 99.23 81.9225 100.3 80.5225 101.1C79.1425 101.9 77.8025 102.3 76.5025 102.3C75.2225 102.3 74.0625 101.96 73.0225 101.28C72.0025 100.6 71.2025 99.67 70.6225 98.49C70.0425 97.31 69.7525 96.01 69.7525 94.59C69.7525 93.05 70.2125 91.6 71.1325 90.24C72.0525 88.88 73.2025 87.8 74.5825 87C75.9825 86.2 77.3325 85.8 78.6325 85.8ZM76.8925 88.14C74.5125 88.14 73.3225 89.81 73.3225 93.15C73.3225 95.09 73.7425 96.71 74.5825 98.01C75.4225 99.31 76.6425 99.96 78.2425 99.96C80.6025 99.96 81.7825 98.29 81.7825 94.95C81.7825 93.01 81.3625 91.39 80.5225 90.09C79.6825 88.79 78.4725 88.14 76.8925 88.14ZM101.583 78.15C103.603 78.15 105.393 78.65 106.953 79.65C108.513 80.63 109.713 82 110.553 83.76C111.413 85.52 111.843 87.51 111.843 89.73C111.843 92.01 111.183 94.12 109.863 96.06C108.563 97.98 106.943 99.51 105.003 100.65C103.063 101.77 101.213 102.33 99.453 102.33C98.513 102.33 97.573 102.28 96.633 102.18C95.073 102.08 93.873 102.03 93.033 102.03H89.433V101.25L92.253 99.03V80.49L89.163 79.47L89.673 78.42H93.003C94.883 78.42 96.743 78.36 98.583 78.24C99.943 78.16 100.943 78.12 101.583 78.12V78.15ZM100.323 100.2C101.803 100.2 103.143 99.81 104.343 99.03C105.543 98.23 106.483 97.14 107.163 95.76C107.863 94.38 108.213 92.83 108.213 91.11C108.213 89.05 107.883 87.17 107.223 85.47C106.583 83.77 105.593 82.42 104.253 81.42C102.913 80.4 101.253 79.89 99.273 79.89C97.953 79.89 96.743 80.28 95.643 81.06V99.42C96.943 99.96 98.493 100.23 100.293 100.23L100.323 100.2ZM125.097 85.8C126.397 85.8 127.557 86.15 128.577 86.85C129.597 87.53 130.397 88.46 130.977 89.64C131.557 90.82 131.847 92.12 131.847 93.54C131.847 95.08 131.387 96.53 130.467 97.89C129.547 99.23 128.387 100.3 126.987 101.1C125.607 101.9 124.267 102.3 122.967 102.3C121.687 102.3 120.527 101.96 119.487 101.28C118.467 100.6 117.667 99.67 117.087 98.49C116.507 97.31 116.217 96.01 116.217 94.59C116.217 93.05 116.677 91.6 117.597 90.24C118.517 88.88 119.667 87.8 121.047 87C122.447 86.2 123.797 85.8 125.097 85.8ZM123.357 88.14C120.977 88.14 119.787 89.81 119.787 93.15C119.787 95.09 120.207 96.71 121.047 98.01C121.887 99.31 123.107 99.96 124.707 99.96C127.067 99.96 128.247 98.29 128.247 94.95C128.247 93.01 127.827 91.39 126.987 90.09C126.147 88.79 124.937 88.14 123.357 88.14ZM167.793 102H159.093V101.22L161.793 99L159.393 93.21H149.193L146.553 99.24L151.953 100.95L151.443 102H142.443V101.22L145.173 99.06L153.813 79.38L156.513 77.85L165.333 99.06L168.333 100.95L167.793 102ZM154.443 81.24L149.703 92.04H158.913L154.443 81.24ZM179.233 102.33C178.053 102.33 177.003 101.99 176.083 101.31V107.31L180.193 108.6L179.683 109.65H170.113V108.87L172.783 106.8V90.36L170.113 88.83V88.05L175.003 85.53L175.963 89.52L180.373 86.04C181.013 85.88 181.743 85.8 182.563 85.8C183.603 85.8 184.543 86.15 185.383 86.85C186.243 87.53 186.913 88.46 187.393 89.64C187.873 90.82 188.113 92.12 188.113 93.54C188.113 95.08 187.653 96.53 186.733 97.89C185.813 99.23 184.653 100.3 183.253 101.1C181.873 101.9 180.533 102.3 179.233 102.3V102.33ZM181.063 88.47C180.283 88.47 179.523 88.63 178.783 88.95C178.063 89.25 177.163 89.9 176.083 90.9V96C176.083 97.14 176.503 98.09 177.343 98.85C178.183 99.61 179.393 99.99 180.973 99.99C182.153 99.99 183.033 99.57 183.613 98.73C184.213 97.89 184.513 96.65 184.513 95.01C184.513 93.17 184.213 91.62 183.613 90.36C183.013 89.08 182.173 88.44 181.093 88.44L181.063 88.47ZM201.147 102.33C199.967 102.33 198.917 101.99 197.997 101.31V107.31L202.107 108.6L201.597 109.65H192.027V108.87L194.697 106.8V90.36L192.027 88.83V88.05L196.917 85.53L197.877 89.52L202.287 86.04C202.927 85.88 203.657 85.8 204.477 85.8C205.517 85.8 206.457 86.15 207.297 86.85C208.157 87.53 208.827 88.46 209.307 89.64C209.787 90.82 210.027 92.12 210.027 93.54C210.027 95.08 209.567 96.53 208.647 97.89C207.727 99.23 206.567 100.3 205.167 101.1C203.787 101.9 202.447 102.3 201.147 102.3V102.33ZM202.977 88.47C202.197 88.47 201.437 88.63 200.697 88.95C199.977 89.25 199.077 89.9 197.997 90.9V96C197.997 97.14 198.417 98.09 199.257 98.85C200.097 99.61 201.307 99.99 202.887 99.99C204.067 99.99 204.947 99.57 205.527 98.73C206.127 97.89 206.427 96.65 206.427 95.01C206.427 93.17 206.127 91.62 205.527 90.36C204.927 89.08 204.087 88.44 203.007 88.44L202.977 88.47Z" fill="black"/>
<rect x="46" y="132" width="257" height="29" rx="10" fill="white"/>
<path d="M279 155C278.45 155 277.979 154.804 277.588 154.413C277.197 154.022 277.001 153.551 277 153V140H276.975C276.692 140 276.458 139.904 276.275 139.712C276.092 139.52 276 139.283 276 139C276 138.717 276.096 138.48 276.288 138.288C276.48 138.096 276.717 138 277 138H281C281 137.717 281.096 137.479 281.288 137.288C281.48 137.097 281.717 137.001 282 137H286C286.283 137 286.521 137.096 286.713 137.288C286.905 137.48 287.001 137.717 287 138H291C291.283 138 291.521 138.096 291.713 138.288C291.905 138.48 292.001 138.717 292 139C291.999 139.283 291.903 139.52 291.712 139.713C291.521 139.906 291.283 140.001 291 140V143.5C291 143.783 290.904 144.021 290.712 144.213C290.52 144.405 290.283 144.501 290 144.5C289.717 144.499 289.48 144.403 289.288 144.212C289.096 144.021 289 143.783 289 143.5V140H279V153H281.675C281.958 153 282.196 153.096 282.388 153.288C282.58 153.48 282.676 153.717 282.675 154C282.675 154.267 282.579 154.5 282.387 154.7C282.195 154.9 281.958 155 281.675 155H279ZM282 142C281.717 142 281.479 142.096 281.288 142.288C281.097 142.48 281.001 142.717 281 143V150C281 150.283 281.096 150.521 281.288 150.713C281.48 150.905 281.717 151.001 282 151C282.283 150.999 282.52 150.903 282.713 150.712C282.906 150.521 283.001 150.283 283 150V143C283 142.717 282.904 142.479 282.712 142.288C282.52 142.097 282.283 142.001 282 142ZM286 142C285.717 142 285.479 142.096 285.288 142.288C285.097 142.48 285.001 142.717 285 143V144.5C285 144.783 285.096 145.021 285.288 145.213C285.48 145.405 285.717 145.501 286 145.5C286.283 145.499 286.52 145.403 286.713 145.212C286.906 145.021 287.001 144.783 287 144.5V143C287 142.717 286.904 142.479 286.712 142.288C286.52 142.097 286.283 142.001 286 142ZM289 156C287.617 156 286.438 155.512 285.463 154.537C284.488 153.562 284.001 152.383 284 151C283.999 149.617 284.487 148.438 285.463 147.463C286.439 146.488 287.618 146 289 146C289.683 146 290.329 146.133 290.938 146.4C291.547 146.667 292.076 147.025 292.525 147.475C292.974 147.925 293.333 148.454 293.6 149.063C293.867 149.672 294.001 150.317 294 151C294 152.383 293.512 153.563 292.537 154.538C291.562 155.513 290.383 156.001 289 156ZM289.5 150.8V148.5C289.5 148.367 289.45 148.25 289.35 148.15C289.25 148.05 289.133 148 289 148C288.867 148 288.75 148.05 288.65 148.15C288.55 148.25 288.5 148.367 288.5 148.5V150.775C288.5 150.908 288.525 151.038 288.575 151.163C288.625 151.288 288.7 151.401 288.8 151.5L290.3 153C290.4 153.1 290.517 153.15 290.65 153.15C290.783 153.15 290.9 153.1 291 153C291.1 152.9 291.15 152.783 291.15 152.65C291.15 152.517 291.1 152.4 291 152.3L289.5 150.8Z" fill="#F24E1E"/>
<defs>
<filter id="filter0_d_9_23" x="0" y="0" width="427" height="288" filterUnits="userSpaceOnUse" color-interpolation-filters="sRGB">
<feFlood flood-opacity="0" result="BackgroundImageFix"/>
<feColorMatrix in="SourceAlpha" type="matrix" values="0 0 0 0 0 0 0 0 0 0 0 0 0 0 0 0 0 0 127 0" result="hardAlpha"/>
<feOffset dy="4"/>
<feGaussianBlur stdDeviation="2"/>
<feComposite in2="hardAlpha" operator="out"/>
<feColorMatrix type="matrix" values="0 0 0 0 0 0 0 0 0 0 0 0 0 0 0 0 0 0 0.25 0"/>
<feBlend mode="normal" in2="BackgroundImageFix" result="effect1_dropShadow_9_23"/>
<feBlend mode="normal" in="SourceGraphic" in2="effect1_dropShadow_9_23" result="shape"/>
</filter>
</defs>
</svg>
